<?xml version="1.0" standalone="no"?>
<!DOCTYPE svg PUBLIC "-//W3C//DTD SVG 20010904//EN"
 "http://www.w3.org/TR/2001/REC-SVG-20010904/DTD/svg10.dtd">
<svg version="1.0" xmlns="http://www.w3.org/2000/svg"
 width="225.000000pt" height="225.000000pt" viewBox="0 0 225.000000 225.000000"
 preserveAspectRatio="xMidYMid meet">

<g transform="translate(0.000000,225.000000) scale(0.100000,-0.100000)"
fill="#000000" stroke="none">
<path d="M166 761 c-4 -5 6 -12 21 -14 47 -9 174 -7 168 2 -2 5 -41 9 -86 10
-45 1 -85 3 -89 6 -5 3 -11 1 -14 -4z"/>
<path d="M109 743 c-13 -17 -13 -17 6 -3 11 8 22 16 24 17 2 2 0 3 -6 3 -6 0
-17 -8 -24 -17z"/>
<path d="M430 750 c0 -5 9 -10 20 -10 11 0 20 5 20 10 0 6 -9 10 -20 10 -11 0
-20 -4 -20 -10z"/>
<path d="M562 743 c2 -12 12 -18 28 -18 16 0 26 6 28 18 3 13 -3 17 -28 17
-25 0 -31 -4 -28 -17z"/>
<path d="M832 743 c2 -12 12 -18 28 -18 16 0 26 6 28 18 3 13 -3 17 -28 17
-25 0 -31 -4 -28 -17z"/>
<path d="M967 754 c-12 -12 6 -34 28 -34 22 0 40 22 28 34 -4 3 -16 6 -28 6
-12 0 -24 -3 -28 -6z"/>
<path d="M1100 746 c0 -7 7 -19 15 -26 12 -10 18 -10 30 0 25 21 18 40 -15 40
-19 0 -30 -5 -30 -14z"/>
<path d="M1270 746 c0 -20 25 -37 44 -30 9 3 16 15 16 25 0 14 -7 19 -30 19
-19 0 -30 -5 -30 -14z"/>
<path d="M1405 750 c-4 -7 0 -19 9 -28 13 -13 20 -14 34 -6 9 6 17 17 17 25 0
17 -50 24 -60 9z"/>
<path d="M1587 754 c-10 -10 12 -44 28 -44 16 0 38 34 28 44 -3 3 -16 6 -28 6
-12 0 -25 -3 -28 -6z"/>
<path d="M1790 749 c0 -5 9 -9 20 -9 11 0 20 2 20 4 0 2 -9 6 -20 9 -11 3 -20
1 -20 -4z"/>
<path d="M1925 750 c-4 -6 11 -10 36 -10 48 0 49 4 2 13 -18 4 -35 2 -38 -3z"/>
<path d="M2017 748 c-7 -4 1 -8 18 -8 17 0 37 5 45 10 11 7 6 9 -18 7 -19 -1
-39 -5 -45 -9z"/>
<path d="M2141 743 c7 -12 15 -20 18 -17 3 2 -3 12 -13 22 -17 16 -18 16 -5
-5z"/>
<path d="M210 698 c0 -27 -10 -43 -30 -51 -8 -3 29 -6 84 -6 86 -1 97 1 92 15
-3 9 -6 27 -6 40 0 17 -6 24 -20 24 -16 0 -20 -7 -20 -30 0 -16 -4 -30 -10
-30 -5 0 -10 6 -10 13 0 8 -7 14 -15 14 -8 0 -15 -6 -15 -14 0 -7 -4 -13 -10
-13 -5 0 -10 14 -10 30 0 20 -5 30 -15 30 -9 0 -15 -9 -15 -22z"/>
<path d="M260 710 c0 -5 7 -10 15 -10 8 0 15 5 15 10 0 6 -7 10 -15 10 -8 0
-15 -4 -15 -10z"/>
<path d="M435 710 c3 -5 10 -10 16 -10 5 0 9 5 9 10 0 6 -7 10 -16 10 -8 0
-12 -4 -9 -10z"/>
<path d="M1790 710 c0 -5 7 -10 15 -10 8 0 15 5 15 10 0 6 -7 10 -15 10 -8 0
-15 -4 -15 -10z"/>
<path d="M1916 704 c-13 -34 -7 -64 14 -64 13 0 20 7 20 20 0 11 -7 20 -15 20
-20 0 -19 10 3 26 15 12 15 13 1 14 -9 0 -20 -7 -23 -16z"/>
<path d="M1970 710 c0 -5 7 -10 15 -10 8 0 15 5 15 10 0 6 -7 10 -15 10 -8 0
-15 -4 -15 -10z"/>
<path d="M2020 690 c0 -29 -15 -41 -22 -18 -5 15 -38 3 -38 -15 0 -11 17 -14
68 -15 48 0 61 2 45 8 -17 7 -23 18 -23 40 0 20 -5 30 -15 30 -10 0 -15 -10
-15 -30z"/>
<path d="M96 677 c3 -10 9 -15 12 -12 3 3 0 11 -7 18 -10 9 -11 8 -5 -6z"/>
<path d="M426 665 c-9 -24 -8 -25 20 -25 19 0 25 5 22 17 -4 23 -34 28 -42 8z"/>
<path d="M1787 666 c-4 -9 -2 -18 3 -21 13 -8 41 6 37 19 -6 17 -34 19 -40 2z"/>
<path d="M378 653 c7 -3 16 -2 19 1 4 3 -2 6 -13 5 -11 0 -14 -3 -6 -6z"/>
<path d="M503 653 c15 -2 37 -2 50 0 12 2 0 4 -28 4 -27 0 -38 -2 -22 -4z"/>
<path d="M743 653 c15 -2 39 -2 55 0 15 2 2 4 -28 4 -30 0 -43 -2 -27 -4z"/>
<path d="M888 653 c6 -2 18 -2 25 0 6 3 1 5 -13 5 -14 0 -19 -2 -12 -5z"/>
<path d="M978 653 c7 -3 16 -2 19 1 4 3 -2 6 -13 5 -11 0 -14 -3 -6 -6z"/>
<path d="M1148 653 c12 -2 30 -2 40 0 9 3 -1 5 -23 4 -22 0 -30 -2 -17 -4z"/>
<path d="M1448 653 c6 -2 18 -2 25 0 6 3 1 5 -13 5 -14 0 -19 -2 -12 -5z"/>
<path d="M1693 653 c15 -2 37 -2 50 0 12 2 0 4 -28 4 -27 0 -38 -2 -22 -4z"/>
<path d="M1878 653 c7 -3 16 -2 19 1 4 3 -2 6 -13 5 -11 0 -14 -3 -6 -6z"/>
<path d="M117 639 c7 -7 15 -10 18 -7 3 3 -2 9 -12 12 -14 6 -15 5 -6 -5z"/>
<path d="M2125 640 c-3 -5 -2 -10 4 -10 5 0 13 5 16 10 3 6 2 10 -4 10 -5 0
-13 -4 -16 -10z"/>
</g>
</svg>
